<?xml version="1.0" encoding="UTF-8" standalone="no"?>
<svg
   version="1.1"
   width="1080"
   height="1080"
   viewBox="123 -309 1080 1080"
   xml:space="preserve"
   id="svg51"
   sodipodi:docname="Mediamodifier-Design(4).svg"
   xmlns:inkscape="http://www.inkscape.org/namespaces/inkscape"
   xmlns:sodipodi="http://sodipodi.sourceforge.net/DTD/sodipodi-0.dtd"
   xmlns="http://www.w3.org/2000/svg"
   xmlns:svg="http://www.w3.org/2000/svg"><sodipodi:namedview
   id="namedview51"
   pagecolor="#ffffff"
   bordercolor="#000000"
   borderopacity="0.25"
   inkscape:showpageshadow="2"
   inkscape:pageopacity="0.0"
   inkscape:pagecheckerboard="0"
   inkscape:deskcolor="#d1d1d1" />
<desc
   id="desc1">Created with Fabric.js 5.2.4</desc>
<defs
   id="defs1" />

<g
   transform="translate(661.96188,231.16204)"
   id="978712b6-3816-4481-9761-bb3a64f0320c">
<rect
   style="visibility:hidden;opacity:1;fill:#ffffff;fill-rule:nonzero;stroke:none;stroke-width:1;stroke-linecap:butt;stroke-linejoin:miter;stroke-miterlimit:4;stroke-dasharray:none;stroke-dashoffset:0"
   vector-effect="non-scaling-stroke"
   x="-540"
   y="-540"
   rx="0"
   ry="0"
   width="1080"
   height="1080"
   id="rect2" />
</g>

<g
   transform="translate(668.8396,170.26696)"
   id="g2">
<path
   style="opacity:0.95;fill:#6c6d6e;fill-rule:nonzero;stroke:none;stroke-width:1;stroke-linecap:butt;stroke-linejoin:miter;stroke-miterlimit:4;stroke-dasharray:none;stroke-dashoffset:0"
   vector-effect="non-scaling-stroke"
   transform="translate(-603.32,-323.91)"
   d="m 50.48,560.82 -1.36,-5.86 4.52,-3.94 -5.98,-0.52 -2.34,-5.5 -2.34,5.5 -5.98,0.52 4.54,3.94 -1.38,5.86 5.16,-3.12 z m 206,-365 -1.36,-5.86 4.52,-3.94 -5.98,-0.52 -2.34,-5.5 -2.34,5.5 -5.98,0.52 4.54,3.94 -1.38,5.86 5.16,-3.12 z m -39,-180 -1.36,-5.86 4.52,-3.94 -5.98,-0.52 -2.34,-5.5 -2.34,5.5 -5.98,0.52 4.54,3.94 -1.38,5.86 5.16,-3.12 z m -25,628 -1.36,-5.86 4.52,-3.94 -5.98,-0.52 -2.34,-5.5 -2.34,5.5 -5.98,0.52 4.54,3.94 -1.38,5.86 5.16,-3.12 z m -179,-277 -1.36,-5.86 4.52,-3.94 -5.98,-0.52 -2.34,-5.5 -2.34,5.5 -5.98,0.52 4.54,3.94 -1.38,5.86 5.16,-3.12 z m 79,-198 -1.36,-5.86 4.52,-3.94 -5.98,-0.52 -2.34,-5.5 -2.34,5.5 -5.98,0.52 4.54,3.94 -1.38,5.86 5.16,-3.12 z m -64,-111 -1.36,-5.86 4.52,-3.94 -5.98,-0.52 -2.34,-5.5 -2.34,5.5 -5.98,0.52 4.54,3.94 -1.38,5.86 5.16,-3.12 z m 156,383 -1.36,-5.86 4.52,-3.94 -5.98,-0.52 -2.34,-5.5 -2.34,5.5 -5.98,0.52 4.54,3.94 -1.38,5.86 5.16,-3.12 z m 704,207 -1.36,-5.86 4.52,-3.94 -5.98,-0.52 -2.34,-5.5 -2.34,5.5 -5.98,0.52 4.54,3.94 -1.38,5.86 5.16,-3.12 z m -270,-59 -1.36,-5.86 4.52,-3.94 -5.98,-0.52 -2.34,-5.5 -2.34,5.5 -5.98,0.52 4.54,3.94 -1.38,5.86 5.16,-3.12 z m 560,-242 -1.36,-5.86 4.52,-3.94 -5.98,-0.52 -2.34,-5.5 -2.34,5.5 -5.98,0.52 4.54,3.94 -1.38,5.86 5.16,-3.12 z m -232,-172 -1.36,-5.86 4.52,-3.94 -5.98,-0.52 -2.34,-5.5 -2.34,5.5 -5.98,0.52 4.54,3.94 -1.38,5.86 5.16,-3.12 z m 257,456 -1.36,-5.86 4.52,-3.94 -5.98,-0.52 -2.34,-5.5 -2.34,5.5 -5.98,0.52 4.54,3.94 -1.38,5.86 5.16,-3.12 z m -175,-312 -1.36,-5.86 4.52,-3.94 -5.98,-0.52 -2.34,-5.5 -2.34,5.5 -5.98,0.52 4.54,3.94 -1.38,5.86 5.16,-3.12 z m 156,-243 -1.36,-5.86 4.52,-3.94 -5.98,-0.52 -2.34,-5.5 -2.34,5.5 -5.98,0.52 4.54,3.94 -1.38,5.86 5.16,-3.12 z m -197,-43 -1.36,-5.86 4.52,-3.94 -5.98,-0.52 -2.34,-5.5 -2.34,5.5 -5.98,0.52 4.54,3.94 -1.38,5.86 5.16,-3.12 z m 125,430 -1.36,-5.86 4.52,-3.94 -5.98,-0.52 -2.34,-5.5 -2.34,5.5 -5.98,0.52 4.54,3.94 -1.38,5.86 5.16,-3.12 z M 101.776,316.17 c 0,0 -0.435,-2.885 0,-5.17 -0.99953,0.10562 -1.927015,0.56954 -2.611,1.306 -1.796,1.796 -0.98,7.509 -0.98,7.509 0,0 5.713,0.816 7.51,-0.98 0.76,-0.761 1.142,-1.686 1.305,-2.611 -2.34,0.38 -5.224,-0.055 -5.224,-0.055 z"
   stroke-linecap="round"
   id="path2" />
</g>
<g
   transform="matrix(0.27,0.15,-0.15,0.27,488.28,453.68)"
   id="91a3e305-c65c-4d73-a459-b32cc402d8a3">
<circle
   style="opacity:1;fill:#656565;fill-rule:nonzero;stroke:#000000;stroke-width:0;stroke-linecap:butt;stroke-linejoin:miter;stroke-miterlimit:4;stroke-dasharray:none;stroke-dashoffset:0"
   vector-effect="non-scaling-stroke"
   cx="0"
   cy="0"
   r="35"
   id="circle2" />
</g>
<g
   transform="matrix(0.25,0.13,-0.13,0.25,501.64,460.04)"
   id="8ba92b48-426d-45f3-ba4b-a1fba4277e96">
<circle
   style="opacity:1;fill:#656565;fill-rule:nonzero;stroke:#000000;stroke-width:0;stroke-linecap:butt;stroke-linejoin:miter;stroke-miterlimit:4;stroke-dasharray:none;stroke-dashoffset:0"
   vector-effect="non-scaling-stroke"
   cx="0"
   cy="0"
   r="35"
   id="circle3" />
</g>

<g
   transform="matrix(0.27,0.15,-0.15,0.27,514.66,401.55)"
   id="g8">
<circle
   style="opacity:1;fill:#656565;fill-rule:nonzero;stroke:#000000;stroke-width:0;stroke-linecap:butt;stroke-linejoin:miter;stroke-miterlimit:4;stroke-dasharray:none;stroke-dashoffset:0"
   vector-effect="non-scaling-stroke"
   cx="0"
   cy="0"
   r="35"
   id="circle7" />
</g>
<g
   transform="matrix(0.28,0.15,-0.15,0.28,529.42,409.95)"
   id="g9">
<circle
   style="opacity:1;fill:#656565;fill-rule:nonzero;stroke:#000000;stroke-width:0;stroke-linecap:butt;stroke-linejoin:miter;stroke-miterlimit:4;stroke-dasharray:none;stroke-dashoffset:0"
   vector-effect="non-scaling-stroke"
   cx="0"
   cy="0"
   r="35"
   id="circle8" />
</g>
<g
   transform="matrix(0.16,0.09,-0.33,0.6,508.01,431.16)"
   id="e6b5d249-6cca-436a-97c7-6ccd18f998bf">
<rect
   style="opacity:1;fill:#656565;fill-rule:nonzero;stroke:#000000;stroke-width:0;stroke-linecap:butt;stroke-linejoin:miter;stroke-miterlimit:4;stroke-dasharray:none;stroke-dashoffset:0"
   vector-effect="non-scaling-stroke"
   x="-33.084999"
   y="-33.084999"
   rx="0"
   ry="0"
   width="66.169998"
   height="66.169998"
   id="rect9" />
</g>

<g
   transform="matrix(0.12,0.29,-0.29,0.12,1067.31,-0.69)"
   id="g15">
<circle
   style="opacity:1;fill:#656565;fill-rule:nonzero;stroke:#000000;stroke-width:0;stroke-linecap:butt;stroke-linejoin:miter;stroke-miterlimit:4;stroke-dasharray:none;stroke-dashoffset:0"
   vector-effect="non-scaling-stroke"
   cx="0"
   cy="0"
   r="35"
   id="circle14" />
</g>
<g
   transform="matrix(0.11,0.26,-0.26,0.11,1073.73,12.64)"
   id="g16">
<circle
   style="opacity:1;fill:#656565;fill-rule:nonzero;stroke:#000000;stroke-width:0;stroke-linecap:butt;stroke-linejoin:miter;stroke-miterlimit:4;stroke-dasharray:none;stroke-dashoffset:0"
   vector-effect="non-scaling-stroke"
   cx="0"
   cy="0"
   r="35"
   id="circle15" />
</g>
<g
   transform="matrix(0.12,0.29,-0.29,0.12,1120.54,-24.78)"
   id="g17">
<circle
   style="opacity:1;fill:#656565;fill-rule:nonzero;stroke:#000000;stroke-width:0;stroke-linecap:butt;stroke-linejoin:miter;stroke-miterlimit:4;stroke-dasharray:none;stroke-dashoffset:0"
   vector-effect="non-scaling-stroke"
   cx="0"
   cy="0"
   r="35"
   id="circle16" />
</g>
<g
   transform="matrix(0.12,0.3,-0.3,0.12,1126.77,-8.96)"
   id="g18">
<circle
   style="opacity:1;fill:#656565;fill-rule:nonzero;stroke:#000000;stroke-width:0;stroke-linecap:butt;stroke-linejoin:miter;stroke-miterlimit:4;stroke-dasharray:none;stroke-dashoffset:0"
   vector-effect="non-scaling-stroke"
   cx="0"
   cy="0"
   r="35"
   id="circle17" />
</g>
<g
   transform="matrix(0.07,0.17,-0.63,0.26,1096.8,-5.86)"
   id="g19">
<rect
   style="opacity:1;fill:#656565;fill-rule:nonzero;stroke:#000000;stroke-width:0;stroke-linecap:butt;stroke-linejoin:miter;stroke-miterlimit:4;stroke-dasharray:none;stroke-dashoffset:0"
   vector-effect="non-scaling-stroke"
   x="-33.084999"
   y="-33.084999"
   rx="0"
   ry="0"
   width="66.169998"
   height="66.169998"
   id="rect18" />
</g>


<g
   transform="matrix(0.13,-0.15,0.15,0.13,1147.49,251.57)"
   id="g27">
<circle
   style="opacity:1;fill:#656565;fill-rule:nonzero;stroke:#000000;stroke-width:0;stroke-linecap:butt;stroke-linejoin:miter;stroke-miterlimit:4;stroke-dasharray:none;stroke-dashoffset:0"
   vector-effect="non-scaling-stroke"
   cx="0"
   cy="0"
   r="35"
   id="circle26" />
</g>
<g
   transform="matrix(0.11,-0.14,0.14,0.11,1153.05,243.96)"
   id="g28">
<circle
   style="opacity:1;fill:#656565;fill-rule:nonzero;stroke:#000000;stroke-width:0;stroke-linecap:butt;stroke-linejoin:miter;stroke-miterlimit:4;stroke-dasharray:none;stroke-dashoffset:0"
   vector-effect="non-scaling-stroke"
   cx="0"
   cy="0"
   r="35"
   id="circle27" />
</g>
<g
   transform="matrix(0.13,-0.15,0.15,0.13,1117.96,228.74)"
   id="g29">
<circle
   style="opacity:1;fill:#656565;fill-rule:nonzero;stroke:#000000;stroke-width:0;stroke-linecap:butt;stroke-linejoin:miter;stroke-miterlimit:4;stroke-dasharray:none;stroke-dashoffset:0"
   vector-effect="non-scaling-stroke"
   cx="0"
   cy="0"
   r="35"
   id="circle28" />
</g>
<g
   transform="matrix(0.13,-0.15,0.15,0.13,1124.7,220.52)"
   id="g30">
<circle
   style="opacity:1;fill:#656565;fill-rule:nonzero;stroke:#000000;stroke-width:0;stroke-linecap:butt;stroke-linejoin:miter;stroke-miterlimit:4;stroke-dasharray:none;stroke-dashoffset:0"
   vector-effect="non-scaling-stroke"
   cx="0"
   cy="0"
   r="35"
   id="circle29" />
</g>
<g
   transform="matrix(0.07,-0.08,0.33,0.27,1135.43,236.51)"
   id="g31">
<rect
   style="opacity:1;fill:#656565;fill-rule:nonzero;stroke:#000000;stroke-width:0;stroke-linecap:butt;stroke-linejoin:miter;stroke-miterlimit:4;stroke-dasharray:none;stroke-dashoffset:0"
   vector-effect="non-scaling-stroke"
   x="-33.084999"
   y="-33.084999"
   rx="0"
   ry="0"
   width="66.169998"
   height="66.169998"
   id="rect30" />
</g>
<g
   transform="matrix(0.15,-0.05,0.05,0.15,331.85,35.75)"
   id="g32">
<circle
   style="opacity:1;fill:#656565;fill-rule:nonzero;stroke:#000000;stroke-width:0;stroke-linecap:butt;stroke-linejoin:miter;stroke-miterlimit:4;stroke-dasharray:none;stroke-dashoffset:0"
   vector-effect="non-scaling-stroke"
   cx="0"
   cy="0"
   r="35"
   id="circle31" />
</g>
<g
   transform="matrix(0.13,-0.04,0.04,0.13,338.84,33.06)"
   id="g33">
<circle
   style="opacity:1;fill:#656565;fill-rule:nonzero;stroke:#000000;stroke-width:0;stroke-linecap:butt;stroke-linejoin:miter;stroke-miterlimit:4;stroke-dasharray:none;stroke-dashoffset:0"
   vector-effect="non-scaling-stroke"
   cx="0"
   cy="0"
   r="35"
   id="circle32" />
</g>
<g
   transform="matrix(0.15,-0.05,0.05,0.15,322.33,7.13)"
   id="g34">
<circle
   style="opacity:1;fill:#656565;fill-rule:nonzero;stroke:#000000;stroke-width:0;stroke-linecap:butt;stroke-linejoin:miter;stroke-miterlimit:4;stroke-dasharray:none;stroke-dashoffset:0"
   vector-effect="non-scaling-stroke"
   cx="0"
   cy="0"
   r="35"
   id="circle33" />
</g>
<g
   transform="matrix(0.16,-0.05,0.05,0.16,330.99,4.9)"
   id="g35">
<circle
   style="opacity:1;fill:#656565;fill-rule:nonzero;stroke:#000000;stroke-width:0;stroke-linecap:butt;stroke-linejoin:miter;stroke-miterlimit:4;stroke-dasharray:none;stroke-dashoffset:0"
   vector-effect="non-scaling-stroke"
   cx="0"
   cy="0"
   r="35"
   id="circle34" />
</g>
<g
   transform="matrix(0.09,-0.03,0.1,0.34,330.67,20.33)"
   id="g36">
<rect
   style="opacity:1;fill:#656565;fill-rule:nonzero;stroke:#000000;stroke-width:0;stroke-linecap:butt;stroke-linejoin:miter;stroke-miterlimit:4;stroke-dasharray:none;stroke-dashoffset:0"
   vector-effect="non-scaling-stroke"
   x="-33.084999"
   y="-33.084999"
   rx="0"
   ry="0"
   width="66.169998"
   height="66.169998"
   id="rect35" />
</g>
<g
   transform="matrix(0.15,-0.05,0.05,0.15,1069.84,448.82)"
   id="g37">
<circle
   style="opacity:1;fill:#656565;fill-rule:nonzero;stroke:#000000;stroke-width:0;stroke-linecap:butt;stroke-linejoin:miter;stroke-miterlimit:4;stroke-dasharray:none;stroke-dashoffset:0"
   vector-effect="non-scaling-stroke"
   cx="0"
   cy="0"
   r="35"
   id="circle36" />
</g>
<g
   transform="matrix(0.14,-0.04,0.04,0.14,1077.33,446.35)"
   id="g38">
<circle
   style="opacity:1;fill:#656565;fill-rule:nonzero;stroke:#000000;stroke-width:0;stroke-linecap:butt;stroke-linejoin:miter;stroke-miterlimit:4;stroke-dasharray:none;stroke-dashoffset:0"
   vector-effect="non-scaling-stroke"
   cx="0"
   cy="0"
   r="35"
   id="circle37" />
</g>
<g
   transform="matrix(0.15,-0.05,0.05,0.15,1060.25,419.99)"
   id="g39">
<circle
   style="opacity:1;fill:#656565;fill-rule:nonzero;stroke:#000000;stroke-width:0;stroke-linecap:butt;stroke-linejoin:miter;stroke-miterlimit:4;stroke-dasharray:none;stroke-dashoffset:0"
   vector-effect="non-scaling-stroke"
   cx="0"
   cy="0"
   r="35"
   id="circle38" />
</g>
<g
   transform="matrix(0.16,-0.05,0.05,0.16,1068.97,417.74)"
   id="g40">
<circle
   style="opacity:1;fill:#656565;fill-rule:nonzero;stroke:#000000;stroke-width:0;stroke-linecap:butt;stroke-linejoin:miter;stroke-miterlimit:4;stroke-dasharray:none;stroke-dashoffset:0"
   vector-effect="non-scaling-stroke"
   cx="0"
   cy="0"
   r="35"
   id="circle39" />
</g>
<g
   transform="matrix(0.09,-0.03,0.1,0.34,1068.66,433.24)"
   id="g41">
<rect
   style="opacity:1;fill:#656565;fill-rule:nonzero;stroke:#000000;stroke-width:0;stroke-linecap:butt;stroke-linejoin:miter;stroke-miterlimit:4;stroke-dasharray:none;stroke-dashoffset:0"
   vector-effect="non-scaling-stroke"
   x="-33.084999"
   y="-33.084999"
   rx="0"
   ry="0"
   width="66.169998"
   height="66.169998"
   id="rect40" />
</g>
<g
   transform="matrix(-0.11,-0.11,0.11,-0.11,623.61,-59.42)"
   id="g42">
<circle
   style="opacity:1;fill:#656565;fill-rule:nonzero;stroke:#000000;stroke-width:0;stroke-linecap:butt;stroke-linejoin:miter;stroke-miterlimit:4;stroke-dasharray:none;stroke-dashoffset:0"
   vector-effect="non-scaling-stroke"
   cx="0"
   cy="0"
   r="35"
   id="circle41" />
</g>
<g
   transform="matrix(-0.11,-0.11,0.11,-0.11,617.87,-64.82)"
   id="g43">
<circle
   style="opacity:1;fill:#656565;fill-rule:nonzero;stroke:#000000;stroke-width:0;stroke-linecap:butt;stroke-linejoin:miter;stroke-miterlimit:4;stroke-dasharray:none;stroke-dashoffset:0"
   vector-effect="non-scaling-stroke"
   cx="0"
   cy="0"
   r="35"
   id="circle42" />
</g>
<g
   transform="matrix(-0.11,-0.11,0.11,-0.11,602.83,-37.24)"
   id="g44">
<circle
   style="opacity:1;fill:#656565;fill-rule:nonzero;stroke:#000000;stroke-width:0;stroke-linecap:butt;stroke-linejoin:miter;stroke-miterlimit:4;stroke-dasharray:none;stroke-dashoffset:0"
   vector-effect="non-scaling-stroke"
   cx="0"
   cy="0"
   r="35"
   id="circle43" />
</g>
<g
   transform="matrix(-0.12,-0.12,0.12,-0.12,596.69,-43.84)"
   id="g45">
<circle
   style="opacity:1;fill:#656565;fill-rule:nonzero;stroke:#000000;stroke-width:0;stroke-linecap:butt;stroke-linejoin:miter;stroke-miterlimit:4;stroke-dasharray:none;stroke-dashoffset:0"
   vector-effect="non-scaling-stroke"
   cx="0"
   cy="0"
   r="35"
   id="circle44" />
</g>
<g
   transform="matrix(-0.06,-0.06,0.25,-0.25,610.47,-50.95)"
   id="g46">
<rect
   style="opacity:1;fill:#656565;fill-rule:nonzero;stroke:#000000;stroke-width:0;stroke-linecap:butt;stroke-linejoin:miter;stroke-miterlimit:4;stroke-dasharray:none;stroke-dashoffset:0"
   vector-effect="non-scaling-stroke"
   x="-33.084999"
   y="-33.084999"
   rx="0"
   ry="0"
   width="66.169998"
   height="66.169998"
   id="rect45" />
</g>
<g
   transform="matrix(0.03,-0.38,0.38,0.03,287.44,329.35)"
   id="g47">
<circle
   style="opacity:1;fill:#656565;fill-rule:nonzero;stroke:#000000;stroke-width:0;stroke-linecap:butt;stroke-linejoin:miter;stroke-miterlimit:4;stroke-dasharray:none;stroke-dashoffset:0"
   vector-effect="non-scaling-stroke"
   cx="0"
   cy="0"
   r="35"
   id="circle46" />
</g>
<g
   transform="matrix(0.02,-0.34,0.34,0.02,287.6,311.4)"
   id="g48">
<circle
   style="opacity:1;fill:#656565;fill-rule:nonzero;stroke:#000000;stroke-width:0;stroke-linecap:butt;stroke-linejoin:miter;stroke-miterlimit:4;stroke-dasharray:none;stroke-dashoffset:0"
   vector-effect="non-scaling-stroke"
   cx="0"
   cy="0"
   r="35"
   id="circle47" />
</g>
<g
   transform="matrix(0.03,-0.38,0.38,0.03,216.13,326.49)"
   id="g49">
<circle
   style="opacity:1;fill:#656565;fill-rule:nonzero;stroke:#000000;stroke-width:0;stroke-linecap:butt;stroke-linejoin:miter;stroke-miterlimit:4;stroke-dasharray:none;stroke-dashoffset:0"
   vector-effect="non-scaling-stroke"
   cx="0"
   cy="0"
   r="35"
   id="circle48" />
</g>
<g
   transform="matrix(0.03,-0.39,0.39,0.03,217.91,305.89)"
   id="g50">
<circle
   style="opacity:1;fill:#656565;fill-rule:nonzero;stroke:#000000;stroke-width:0;stroke-linecap:butt;stroke-linejoin:miter;stroke-miterlimit:4;stroke-dasharray:none;stroke-dashoffset:0"
   vector-effect="non-scaling-stroke"
   cx="0"
   cy="0"
   r="35"
   id="circle49" />
</g>
<g
   transform="matrix(0.02,-0.22,0.83,0.06,252.35,318.88)"
   id="g51">
<rect
   style="opacity:1;fill:#656565;fill-rule:nonzero;stroke:#000000;stroke-width:0;stroke-linecap:butt;stroke-linejoin:miter;stroke-miterlimit:4;stroke-dasharray:none;stroke-dashoffset:0"
   vector-effect="non-scaling-stroke"
   x="-33.084999"
   y="-33.084999"
   rx="0"
   ry="0"
   width="66.169998"
   height="66.169998"
   id="rect50" />
</g>
</svg>
